<svg width="100" height="100" viewBox="0 0 100 100" fill="none" xmlns="http://www.w3.org/2000/svg">
<g clip-path="url(#clip0_10_2)">
<path d="M49.043 0.273438C47.3437 1.21094 48.0664 3.90625 50 3.90625C50.9961 3.90625 51.9531 2.94922 51.9531 1.97266C51.9531 0.507812 50.332 -0.449219 49.043 0.273438Z" fill="#CAB19D"/>
<path d="M38.7305 1.46484C31.2109 3.45703 23.6719 7.96875 18.2617 13.7109C10.6055 21.8359 6.44531 32.3047 6.40625 43.457C6.38672 50.6445 7.77344 56.6797 10.8594 63.0078L11.7188 64.7852L6.42578 73.9453C0.332031 84.4727 0 85.1172 0 86.3281C0 88.0273 1.25 89.8828 2.87109 90.5664C3.76953 90.9375 5.07812 90.8789 9.14062 90.3125C11.1328 90.0391 12.8516 89.8633 12.9688 89.9023C13.0859 89.9609 13.8867 91.7188 14.7461 93.8281C15.625 95.9961 16.543 97.9883 16.875 98.3789C17.5781 99.2383 19.1602 100 20.2344 100C21.5039 100 22.7539 99.4727 23.5742 98.5742C23.9844 98.125 26.1133 94.6094 28.3203 90.7617C31.7578 84.7656 32.3828 83.7891 32.7148 83.8672C32.9297 83.9258 34.375 84.3945 35.9375 84.9414C45.0195 88.0859 54.9805 88.0859 64.0625 84.9414C65.625 84.3945 67.0703 83.9258 67.2852 83.8672C67.6172 83.7891 68.2422 84.7656 71.6797 90.7617C73.8867 94.6094 76.0156 98.125 76.4258 98.5742C77.2461 99.4727 78.4961 100 79.7656 100C80.8398 100 82.4219 99.2383 83.125 98.3789C83.457 97.9688 84.375 96.0352 85.2539 93.8281C86.0938 91.7188 86.8945 89.9609 87.0312 89.9023C87.1484 89.8633 88.8672 90.0391 90.8594 90.3125C94.9219 90.8789 96.2305 90.9375 97.1289 90.5664C98.75 89.8828 100 88.0273 100 86.3281C100 85.8203 99.8047 85.0391 99.5312 84.4727C99.2969 83.9258 96.6602 79.2773 93.6719 74.1406L88.2812 64.7852L89.1406 63.0078C93.3594 54.375 94.6094 45 92.8516 35.3711C90.4492 22.2656 81.4648 10.5078 69.2578 4.51172C65.4492 2.65625 60.4297 0.976562 58.6523 0.976562C57.3047 0.976562 56.4453 2.46094 57.0508 3.76953C57.3438 4.41406 57.6758 4.57031 60.2539 5.27344C75.6445 9.375 87.0117 22.2266 89.3555 38.1836C89.7656 41.0156 89.7656 46.2891 89.3555 49.1211C88.0859 57.7539 84.3359 65.3711 78.3398 71.4648C72.2852 77.6172 64.8047 81.4844 56.0742 82.9492C53.2422 83.418 46.6211 83.418 43.8477 82.9492C31.5625 80.8008 21.5625 73.8867 15.4688 63.2812C11.9727 57.1875 10.332 50.8984 10.332 43.6523C10.332 34.7852 13.0273 26.7188 18.3984 19.5898C23.7305 12.4805 31.8555 7.1875 40.8203 4.98047C42.207 4.62891 42.5977 4.41406 42.9297 3.76953C43.3398 3.00781 43.2031 2.16797 42.5977 1.54297C41.875 0.839844 41.1914 0.820312 38.7305 1.46484ZM19.3164 74.6094C21.9141 77.1875 24.4336 79.1992 27.1484 80.8398C28.0469 81.3867 28.8086 81.875 28.8477 81.8945C28.8867 81.9336 27.0898 85.1172 24.8438 88.9844C21.2891 95.1562 20.7422 95.9961 20.332 95.9961C19.9023 95.9961 19.707 95.6445 18.2812 92.1289C17.4023 90.0195 16.4453 87.9688 16.1328 87.5781C15.4688 86.7383 13.8672 85.9375 12.8711 85.9375C12.4805 85.9375 10.6055 86.1719 8.71094 86.4453C4.94141 86.9922 4.04297 86.9922 3.94531 86.5039C3.88672 86.2305 7.79297 79.2969 13.0273 70.3516L14.082 68.5352L15.4688 70.3516C16.2305 71.3477 17.9688 73.2617 19.3164 74.6094ZM91.1133 77.5195C93.8672 82.2852 96.0938 86.3281 96.0547 86.5039C95.957 86.9922 95.0586 86.9922 91.2891 86.4453C89.3945 86.1719 87.5195 85.9375 87.1289 85.9375C86.1328 85.9375 84.5312 86.7383 83.8672 87.5781C83.5547 87.9688 82.5977 90.0195 81.7188 92.1289C80.293 95.6445 80.0977 95.9961 79.668 95.9961C79.2578 95.9961 78.7109 95.1562 75.1367 88.9844C72.2266 83.9453 71.1523 81.9141 71.3281 81.8164C76.1914 79.043 81.5234 74.3945 84.668 70.1562C85.3125 69.2969 85.8984 68.6523 85.9766 68.7109C86.0547 68.7891 88.3594 72.7539 91.1133 77.5195Z" fill="#CAB19D"/>
<path d="M47.0703 9.98047C42.8125 10.332 38.9648 11.4258 34.8633 13.4766C31.7773 15.0195 29.2773 16.7383 27.0703 18.8086C25.6641 20.1367 25.5859 20.2539 25.5859 21.0547C25.5859 22.168 26.3867 23.0469 27.4219 23.0469C28.0078 23.0469 28.3789 22.793 29.9219 21.4648C38.3008 14.1797 48.9062 11.9531 59.375 15.2734C63.0664 16.4453 66.7578 18.5742 70.0781 21.4648C71.6211 22.793 71.9922 23.0469 72.5781 23.0469C73.6133 23.0469 74.4141 22.168 74.4141 21.0547C74.4141 20.2734 74.3359 20.1367 72.9883 18.8477C70.8594 16.8164 68.2031 15.0195 65.1367 13.4766C60.8984 11.3672 57.4023 10.3906 52.6367 9.98047C50.0586 9.74609 49.7656 9.74609 47.0703 9.98047Z" fill="#CAB19D"/>
<path d="M13.4766 34.5312L12.8906 35.1172V43.7305V52.3242L13.3594 52.8711L13.8281 53.418H17.7148C21.25 53.418 21.6602 53.3789 22.4805 53.0078C23.7305 52.4219 24.9219 51.2891 25.5469 50.1172C25.9961 49.2578 26.0742 48.8867 26.0742 47.3633C26.0742 45.3906 25.7227 44.3945 24.5898 43.2031L23.9648 42.5391L24.3164 41.8359C24.4922 41.4258 24.707 40.5664 24.7461 39.9219C24.9414 37.6758 23.8281 35.6836 21.7969 34.6094C20.8398 34.1016 20.6445 34.082 17.4414 34.0234L14.0625 33.9453L13.4766 34.5312ZM20.4102 38.3789C21.1328 39.082 21.0742 40.0586 20.293 40.7031C19.7656 41.1523 19.5312 41.2109 18.2422 41.2109H16.7969V39.5508V37.8906H18.3594C19.7852 37.8906 19.9805 37.9492 20.4102 38.3789ZM21.6016 45.7812C22.1484 46.3281 22.2656 46.6016 22.2656 47.2461C22.2656 48.9844 21.2695 49.6094 18.5547 49.6094H16.7969V47.3633V45.1172H18.8672H20.9375L21.6016 45.7812Z" fill="#CAB19D"/>
<path d="M32.6953 34.1602C30.8789 34.6094 28.8867 36.2696 28.0664 38.0469C27.6562 38.9063 27.6367 39.2383 27.6367 43.75V48.5352L28.2031 49.668C28.9062 51.0352 30.1367 52.2071 31.6016 52.8907C33.0859 53.5938 35.5273 53.6328 36.9727 52.9688C39.0234 52.0508 40.3516 50.4883 40.918 48.3399C41.3281 46.7383 41.3281 40.7813 40.918 39.1602C40 35.5664 36.2891 33.3203 32.6953 34.1602ZM35.7617 38.3203C36.25 38.5938 36.6602 39.043 36.9336 39.5899C37.3047 40.3516 37.3242 40.7032 37.2656 44.0235C37.207 47.9688 37.1484 48.1446 35.8594 49.1016C35.0195 49.7266 33.4766 49.668 32.5586 48.9649C31.5234 48.1836 31.4062 47.5391 31.4844 43.3203C31.543 40 31.582 39.6289 31.9531 39.1211C32.832 37.9102 34.4336 37.5782 35.7617 38.3203Z" fill="#CAB19D"/>
<path d="M43.5156 34.5508L42.8711 35.1172V43.75V52.3828L43.5156 52.9492C43.8672 53.2617 44.375 53.5156 44.6484 53.5156C45.2734 53.5156 46.1914 53.0469 46.4062 52.5977C46.5039 52.4023 46.6211 50.0195 46.6797 47.2852L46.7773 42.3242L50.3906 47.5391C52.6758 50.8594 54.1797 52.8711 54.5312 53.0469C55.3711 53.4766 56.1719 53.3789 56.875 52.7539L57.5195 52.1875L57.5781 43.9062C57.5977 39.3555 57.5781 35.4492 57.5195 35.1953C57.3828 34.6484 56.3477 33.9844 55.625 33.9844C55.3125 33.9844 54.8242 34.2188 54.4531 34.5508L53.8086 35.1172L53.7109 40.2344L53.6133 45.3516L49.8438 39.8828C47.4805 36.4648 45.8984 34.3555 45.5859 34.1992C44.8047 33.8477 44.1797 33.9453 43.5156 34.5508Z" fill="#CAB19D"/>
<path d="M60.7227 34.2774C59.7852 34.7852 59.7461 35.1563 59.8047 42.5001L59.8633 49.3165L60.3907 50.2149C61.9141 52.8126 64.8829 54.043 67.6758 53.2423C68.3008 53.0469 69.043 52.754 69.3164 52.5977C70.1954 52.0509 71.3086 50.8985 71.7383 50.0977C72.1485 49.336 72.168 49.0626 72.2266 42.2657L72.2852 35.1954L71.836 34.668C71.543 34.336 71.1133 34.1212 70.586 34.043C69.8829 33.9454 69.6875 34.0235 69.1211 34.5313L68.4571 35.1173L68.3594 41.7969L68.2618 48.4766L67.7149 48.9259C66.6602 49.8438 65.1954 49.8048 64.2383 48.8282L63.6719 48.2813V41.7969V35.3126L63.0079 34.6485C62.2852 33.9258 61.5821 33.8087 60.7227 34.2774Z" fill="#CAB19D"/>
<path d="M78.0078 34.3164C74.7266 35.2735 73.0664 38.7696 74.5118 41.7188C75.2735 43.2813 75.9571 43.6914 80.7032 45.5274C82.2461 46.1328 83.2032 46.9336 83.2032 47.6563C83.2032 47.8516 82.9883 48.2813 82.7149 48.6133C81.4258 50.1172 78.7305 49.8438 76.4063 47.9492C75.293 47.0508 74.5899 47.0508 73.711 47.9297C72.5391 49.1016 72.9688 50.3711 75 51.7774C77.1289 53.2617 80.1563 53.8477 82.3243 53.2422C86.8946 51.9336 88.5743 47.0117 85.5274 43.9453C84.5899 43.0274 83.75 42.5586 81.1524 41.5235C78.1446 40.3125 77.9297 40.1758 77.9297 39.4531C77.9297 37.7344 80.4493 37.3828 82.9493 38.7891C84.4532 39.6289 85.1953 39.6485 85.9571 38.8867C86.7383 38.086 86.7578 36.9727 85.9766 36.1914C84.1602 34.3946 80.586 33.5547 78.0078 34.3164Z" fill="#CAB19D"/>
<path d="M26.6406 64.4533C25.9961 64.7072 25.5859 65.4299 25.5859 66.3088C25.5859 67.0314 25.7031 67.2072 27.0117 68.4572C31.1523 72.4025 37.3047 75.5666 43.0664 76.7385C48.7109 77.8713 54.1992 77.6564 59.668 76.0744C64.4727 74.6877 69.7266 71.6408 73.1836 68.2814C74.2969 67.1877 74.4141 66.9924 74.4141 66.2697C74.4141 65.176 73.8086 64.4728 72.7539 64.3166C71.9922 64.2189 71.8945 64.2775 70.1172 65.8205C64.7461 70.4689 59.3555 72.7931 52.3633 73.4572C47.3828 73.926 41.7773 72.8908 37.0117 70.6056C34.6875 69.4924 32.1484 67.7931 29.9219 65.84C28.0469 64.2189 27.6367 64.0431 26.6406 64.4533Z" fill="#CAB19D"/>
</g>
<defs>
<clipPath id="clip0_10_2">
<rect width="100" height="100" fill="white"/>
</clipPath>
</defs>
</svg>
